<svg width="90" height="90" viewBox="0 0 90 90" fill="none" xmlns="http://www.w3.org/2000/svg">
<path d="M45 90C69.8528 90 90 69.8528 90 45C90 20.1472 69.8528 0 45 0C20.1472 0 0 20.1472 0 45C0 69.8528 20.1472 90 45 90Z" fill="#FEE712"/>
<path d="M45.4263 67.9731C43.5197 67.9865 41.6264 67.8998 39.7397 67.6331C39.453 67.5931 39.2263 67.6465 38.9863 67.8198C35.2397 70.4465 31.4997 73.0798 27.633 75.5331C27.1663 75.8331 26.673 76.0931 26.1863 76.3731C26.013 76.4731 25.833 76.5331 25.633 76.5598C25.013 76.6465 24.653 76.2798 24.7863 75.6665C25.013 74.5865 25.3397 73.5331 25.6397 72.4731C26.3997 69.7998 27.1663 67.1265 27.933 64.4531C27.9997 64.2198 27.9797 64.1065 27.733 63.9865C24.0863 62.1398 20.8663 59.7331 18.2463 56.5798C15.653 53.4598 13.8997 49.9398 13.273 45.9065C12.5597 41.2998 13.373 36.9465 15.593 32.8598C17.7663 28.8598 20.9063 25.7598 24.693 23.2931C28.7397 20.6665 33.173 19.0265 37.9063 18.1731C41.433 17.5398 44.9864 17.3798 48.553 17.7065C55.2663 18.3131 61.4597 20.3865 66.9197 24.4131C70.5463 27.0865 73.4597 30.3798 75.233 34.5598C78.073 41.2465 77.4797 47.7198 73.6997 53.8865C71.2797 57.8398 67.8797 60.8065 63.893 63.1131C60.0863 65.3198 55.9864 66.7131 51.6464 67.4398C49.593 67.7798 47.513 67.9598 45.4263 67.9731Z" fill="black"/>
<path d="M60.2797 41.0265C60.3463 40.9265 60.4063 40.8198 60.493 40.7331C62.0663 39.1531 63.6463 37.5731 65.2263 35.9998C65.8197 35.4065 66.5463 35.3198 67.253 35.7465C67.9597 36.1731 68.313 37.0065 68.0997 37.7398C68.0197 38.0198 67.8463 38.2398 67.6397 38.4465C66.3463 39.7331 65.0597 41.0331 63.7597 42.3131C63.5797 42.4931 63.5863 42.5931 63.733 42.7865C65.173 44.6798 66.6063 46.5865 68.0397 48.4865C68.6663 49.3198 68.5797 50.3798 67.8463 51.0331C67.0263 51.7598 65.813 51.6465 65.1263 50.7465C63.8397 49.0598 62.5663 47.3665 61.293 45.6731C61.2597 45.6265 61.233 45.5798 61.193 45.5398C61.0463 45.3931 60.9997 45.1131 60.7663 45.0998C60.5863 45.0865 60.1663 45.7465 60.1663 45.9598C60.1663 47.2265 60.173 48.4998 60.1597 49.7665C60.1463 50.6531 59.5263 51.3531 58.6397 51.5265C57.8397 51.6798 56.9997 51.2398 56.653 50.4731C56.5397 50.2198 56.4863 49.9598 56.4863 49.6798C56.4863 45.4931 56.4863 41.3065 56.4863 37.1131C56.4863 36.0598 57.2997 35.2465 58.3197 35.2398C59.3397 35.2331 60.153 36.0465 60.1663 37.0998C60.1797 38.2998 60.1663 39.5065 60.1663 40.7065C60.1663 40.7931 60.1663 40.8731 60.1663 40.9598C60.2063 40.9731 60.2397 40.9998 60.2797 41.0265Z" fill="#FEE712"/>
<path d="M38.2401 48.3332C37.3868 48.3332 36.5335 48.3399 35.6801 48.3266C35.4868 48.3266 35.3935 48.3799 35.3268 48.5666C35.1068 49.1732 34.8735 49.7666 34.6401 50.3732C34.2868 51.2999 33.6401 51.6732 32.6401 51.5266C31.3468 51.3332 30.9068 50.6799 31.1801 49.3532C31.3535 48.5266 31.7135 47.7599 32.0068 46.9799C33.2535 43.6866 34.5001 40.3932 35.7535 37.0999C36.1201 36.1332 36.8001 35.4866 37.8201 35.2799C38.9801 35.0466 40.2001 35.7932 40.6668 36.9999C41.3601 38.7999 42.0401 40.6066 42.7268 42.4132C43.5001 44.4399 44.2735 46.4666 45.0401 48.4999C45.2535 49.0666 45.3868 49.6466 45.3335 50.2599C45.2868 50.7866 45.0335 51.1599 44.5268 51.3466C44.1535 51.4799 43.7735 51.5666 43.3735 51.5399C42.6401 51.4932 42.0868 51.2132 41.8468 50.4466C41.6535 49.8266 41.3801 49.2266 41.1601 48.6066C41.0868 48.3999 41.0001 48.3199 40.7668 48.3266C39.9268 48.3466 39.0801 48.3332 38.2401 48.3332Z" fill="#FEE712"/>
<path d="M25.4662 44.44C25.4662 42.6933 25.4595 40.94 25.4728 39.1933C25.4728 38.92 25.4262 38.8133 25.1195 38.8267C24.2995 38.8533 23.4795 38.84 22.6595 38.8333C21.5862 38.8267 20.7928 38.0733 20.7862 37.06C20.7795 36.0267 21.5662 35.2267 22.6462 35.2267C25.7595 35.22 28.8728 35.22 31.9928 35.2267C32.9728 35.2267 33.7462 35.9133 33.8462 36.8267C33.9462 37.7267 33.3795 38.54 32.4995 38.78C32.3195 38.8333 32.1328 38.8333 31.9462 38.8333C31.1262 38.8333 30.3062 38.8467 29.4862 38.8267C29.2195 38.82 29.1662 38.9133 29.1662 39.16C29.1728 42.6467 29.1728 46.1333 29.1728 49.62C29.1728 50.5533 28.7128 51.22 27.9062 51.4733C26.6795 51.86 25.4862 51.0067 25.4795 49.72C25.4595 47.96 25.4662 46.2 25.4662 44.44Z" fill="#FEE712"/>
<path d="M46.3131 43.3133C46.3131 41.2333 46.3065 39.16 46.3131 37.08C46.3131 36.1067 47.0131 35.36 48.0065 35.2333C48.8931 35.12 49.7731 35.7267 50.0131 36.62C50.0731 36.8467 50.0665 37.0733 50.0665 37.3C50.0665 40.72 50.0731 44.14 50.0598 47.5667C50.0598 47.86 50.1331 47.9333 50.4198 47.9267C51.6198 47.9067 52.8265 47.9067 54.0265 47.9267C54.9665 47.94 55.7131 48.6467 55.7531 49.5133C55.7931 50.4333 55.0731 51.2667 54.1398 51.28C52.0665 51.3067 49.9865 51.3067 47.9065 51.28C47.0065 51.2667 46.2998 50.4933 46.2998 49.58C46.3065 47.4867 46.3131 45.4 46.3131 43.3133Z" fill="#FEE712"/>
<path d="M38.2332 39.833C38.8598 41.6197 39.4598 43.3263 40.0732 45.0663C39.2732 45.0663 38.5132 45.0663 37.7465 45.0663C37.3865 45.0663 37.0265 45.053 36.6665 45.073C36.4332 45.0863 36.3998 45.0263 36.4732 44.8063C36.9465 43.4863 37.4132 42.153 37.8798 40.8263C37.9932 40.5263 38.0998 40.2263 38.2332 39.833Z" fill="black"/>
</svg>
