<svg width="145" height="26" viewBox="0 0 145 26" fill="none" xmlns="http://www.w3.org/2000/svg">
<path d="M10.9292 14.2533C9.88386 14.2533 8.96869 14.1885 8.17961 14.0873V23.5827C8.96869 24.2387 10.0059 24.5586 11.3725 24.6517L11.4092 25.4899C7.6061 25.3441 3.80305 25.3441 0 25.4899V24.8703L2.4974 24.263L2.50554 1.92749C1.7734 1.27556 0.911105 0.955674 0.0366069 0.850395L0 0.012207H12.6253C17.2622 0.012207 21.6103 1.71288 21.6103 6.87563C21.6103 13.2207 15.0658 14.2533 10.9292 14.2533ZM15.8101 6.90802C15.8101 3.6484 13.6137 1.00022 8.81413 1.00022H8.17961V12.6903C8.76125 12.8725 9.42424 12.9899 10.1767 12.9899C14.1953 12.9899 15.8101 9.71413 15.8101 6.90802Z" fill="black"/>
<path d="M35.0979 22.7243C37.4001 22.7243 38.9742 21.4002 38.9742 21.4002L39.263 21.6675C37.2293 24.2144 34.2153 25.8908 31.1851 25.8908C26.8695 25.8908 23.2495 22.5016 23.2495 17.5211C23.2495 12.6094 26.7597 8.34961 32.0962 8.34961C35.7772 8.34961 39.7023 10.4228 39.7389 15.0106L29.2083 15.8488L29.1351 15.375L34.6017 14.6704C34.4716 11.6376 32.7917 8.82742 30.9207 8.8922C29.192 8.95294 28.5901 11.4311 28.5901 13.8808C28.5901 19.1205 31.2583 22.7243 35.0979 22.7243Z" fill="black"/>
<path d="M49.6839 23.6558C50.0866 24.3604 50.8065 24.7653 51.7298 24.7653L51.7664 25.4942C48.9884 25.2755 45.2951 25.312 42.4805 25.4942V24.984L44.4898 24.5143V10.18C43.9895 9.79537 43.3102 9.56861 42.5171 9.54837V8.96528C45.1487 8.92884 47.9268 8.71018 49.5009 8.41864L49.6839 8.60085V23.6558ZM54.8821 8.28906C56.745 8.28906 57.9815 9.78727 57.9815 11.3705C57.9815 12.9862 56.745 14.5451 54.8048 14.5451C54.3899 14.5451 53.8856 14.4763 53.4625 14.3062C54.2313 12.3626 53.3324 10.917 52.2545 11.4151C51.6688 11.6864 50.8512 12.6177 50.477 14.4803L50.1435 14.3953C50.7496 10.9251 52.4009 8.28906 54.8821 8.28906Z" fill="black"/>
<path d="M58.1682 23.8173C58.1682 22.6106 59.1485 21.6348 60.3606 21.6348C61.5727 21.6348 62.5529 22.6106 62.5529 23.8173C62.5529 25.024 61.5686 25.9998 60.3606 25.9998C59.1525 25.9998 58.1682 25.024 58.1682 23.8173Z" fill="black"/>
<path d="M91.0575 0.631678L88.4096 1.27955V25.6842H86.1563L69.6954 4.6485V23.53C70.4519 24.2103 71.3142 24.5423 72.1765 24.6476L72.2131 25.4858C70.3014 25.3562 67.7552 25.3562 65.8435 25.4858V24.8662L68.5036 24.2184V2.98427C67.3769 1.38483 66.6855 0.959664 65.8842 0.834138L65.8476 0C68.5524 0.145772 71.3508 0.157919 74.1695 0.0121476L87.2179 17.5493V1.98007C86.4573 1.2917 85.5909 0.955615 84.7245 0.850335L84.6879 0.0121476C86.5996 0.141723 89.1458 0.141723 91.0575 0.0121476V0.631678Z" fill="black"/>
<path d="M93.8154 17.8855C93.8154 12.4636 97.7283 8.34961 103.87 8.34961C109.133 8.34961 112.351 11.4068 112.351 16.359C112.351 21.7809 108.438 25.8949 102.296 25.8949C97.0328 25.8908 93.8154 22.8337 93.8154 17.8855ZM104.151 25.3766C105.892 25.3766 106.815 22.9349 106.913 20.1936C107.075 15.5491 104.915 8.86386 102.019 8.86386C100.279 8.86386 99.3553 11.3055 99.2577 14.0469C99.095 18.6913 101.255 25.3766 104.151 25.3766Z" fill="black"/>
<path d="M126.143 22.4689C124.227 24.8134 122.417 25.8905 120.384 25.8905C117.549 25.8905 116.247 24.1169 116.247 20.2499V9.61263H114.73V8.7461C117.345 7.90386 119.131 6.36111 120.982 3.35254L121.677 3.5712V8.4505L125.017 8.738V9.61263H121.677V19.3105C121.677 21.7238 122.247 22.9791 123.76 22.9791C124.772 22.9791 125.85 22.1773 125.85 22.1773L126.143 22.4689Z" fill="black"/>
<path d="M140.359 22.7243C142.661 22.7243 144.235 21.4002 144.235 21.4002L144.524 21.6675C142.486 24.2144 139.477 25.8908 136.446 25.8908C132.131 25.8908 128.511 22.5016 128.511 17.5211C128.511 12.6094 132.021 8.34961 137.357 8.34961C141.038 8.34961 144.964 10.4228 145 15.0106L134.47 15.8488L134.396 15.375L139.863 14.6704C139.733 11.6376 138.053 8.82742 136.182 8.8922C134.453 8.95294 133.851 11.4311 133.851 13.8808C133.851 19.1205 136.52 22.7243 140.359 22.7243Z" fill="black"/>
</svg>
