<svg width="218" height="40" viewBox="0 0 218 40" fill="none" xmlns="http://www.w3.org/2000/svg">
<path d="M16.6438 21.5867C15.0758 21.5867 13.703 21.4895 12.5194 21.3377V35.5808C13.703 36.5647 15.2588 37.0446 17.3088 37.1843L17.3637 38.4415C11.6591 38.2229 5.95457 38.2229 0.25 38.4415V37.5122L3.9961 36.6012L4.0083 3.09801C2.9101 2.12013 1.61666 1.6403 0.30491 1.48238L0.25 0.225098H19.1879C26.1432 0.225098 32.6654 2.7761 32.6654 10.5202C32.6654 20.0379 22.8486 21.5867 16.6438 21.5867ZM23.9651 10.5688C23.9651 5.67938 20.6705 1.70711 13.4712 1.70711H12.5194V19.2422C13.3919 19.5155 14.3863 19.6917 15.5151 19.6917C21.543 19.6917 23.9651 14.778 23.9651 10.5688Z" fill="white"/>
<path d="M52.8971 34.293C56.3504 34.293 58.7115 32.3069 58.7115 32.3069L59.1447 32.7077C56.0941 36.5282 51.5732 39.0427 47.0278 39.0427C40.5545 39.0427 35.1245 33.9589 35.1245 26.4881C35.1245 19.1206 40.3898 12.731 48.3945 12.731C53.916 12.731 59.8036 15.8407 59.8585 22.7224L44.0627 23.9797L43.9529 23.269L52.1528 22.2122C51.9576 17.6629 49.4378 13.4477 46.6313 13.5448C44.0383 13.636 43.1353 17.3531 43.1353 21.0278C43.1353 28.8873 47.1377 34.293 52.8971 34.293Z" fill="white"/>
<path d="M74.7758 35.6903C75.3798 36.7471 76.4597 37.3545 77.8447 37.3545L77.8996 38.4478C73.7325 38.1198 68.1927 38.1744 63.9707 38.4478V37.6825L66.9847 36.9779V15.4766C66.2342 14.8996 65.2153 14.5595 64.0256 14.5291V13.6545C67.973 13.5998 72.1401 13.2718 74.5013 12.8345L74.7758 13.1078V35.6903ZM82.5731 12.6401C85.3674 12.6401 87.2222 14.8874 87.2222 17.2623C87.2222 19.6858 85.3674 22.0242 82.4572 22.0242C81.8348 22.0242 81.0783 21.9209 80.4438 21.6658C81.5969 18.7504 80.2485 16.582 78.6317 17.3291C77.7532 17.7361 76.5268 19.133 75.9655 21.927L75.4653 21.7994C76.3743 16.5942 78.8514 12.6401 82.5731 12.6401Z" fill="white"/>
<path d="M87.502 35.9335C87.502 34.1235 88.9723 32.6597 90.7905 32.6597C92.6086 32.6597 94.079 34.1235 94.079 35.9335C94.079 37.7434 92.6025 39.2072 90.7905 39.2072C88.9784 39.2072 87.502 37.7434 87.502 35.9335Z" fill="white"/>
<path d="M136.837 1.15455L132.865 2.12636V38.7332H129.485L104.793 7.17977V35.502C105.928 36.5224 107.222 37.0204 108.515 37.1783L108.57 38.4356C105.702 38.2412 101.883 38.2412 99.0156 38.4356V37.5063L103.006 36.5345V4.68343C101.316 2.28428 100.279 1.64653 99.0766 1.45824L99.0217 0.207031C103.079 0.425689 107.277 0.44391 111.505 0.225253L131.077 26.5309V3.17713C129.936 2.14458 128.637 1.64045 127.337 1.48253L127.282 0.225253C130.15 0.419615 133.969 0.419615 136.837 0.225253V1.15455Z" fill="white"/>
<path d="M140.973 27.0348C140.973 18.902 146.842 12.731 156.055 12.731C163.95 12.731 168.776 17.3167 168.776 24.745C168.776 32.8778 162.907 39.0488 153.694 39.0488C145.799 39.0427 140.973 34.457 140.973 27.0348ZM156.476 38.2713C159.087 38.2713 160.472 34.6088 160.619 30.4969C160.863 23.5302 157.623 13.5023 153.279 13.5023C150.668 13.5023 149.283 17.1648 149.136 21.2768C148.892 28.2435 152.132 38.2713 156.476 38.2713Z" fill="white"/>
<path d="M189.465 33.9113C186.591 37.428 183.876 39.0437 180.825 39.0437C176.573 39.0437 174.62 36.3833 174.62 30.5828V14.6269H172.345V13.3271C176.268 12.0638 178.946 9.74966 181.722 5.23682L182.765 5.5648V12.8837L187.774 13.315V14.6269H182.765V29.1737C182.765 32.7937 183.62 34.6766 185.889 34.6766C187.408 34.6766 189.025 33.474 189.025 33.474L189.465 33.9113Z" fill="white"/>
<path d="M210.789 34.293C214.242 34.293 216.603 32.3069 216.603 32.3069L217.036 32.7077C213.98 36.5282 209.465 39.0427 204.919 39.0427C198.446 39.0427 193.016 33.9589 193.016 26.4881C193.016 19.1206 198.281 12.731 206.286 12.731C211.808 12.731 217.695 15.8407 217.75 22.7224L201.954 23.9797L201.844 23.269L210.044 22.2122C209.849 17.6629 207.329 13.4477 204.523 13.5448C201.93 13.636 201.027 17.3531 201.027 21.0278C201.027 28.8873 205.029 34.293 210.789 34.293Z" fill="white"/>
</svg>
