<svg width="61" height="42" viewBox="0 0 61 42" fill="none" xmlns="http://www.w3.org/2000/svg">
<path d="M30.5 5.54545C41.0086 5.54545 50.3805 11.4514 54.9555 20.7955C50.3805 30.1395 41.0086 36.0455 30.5 36.0455C19.9914 36.0455 10.6195 30.1395 6.04455 20.7955C10.6195 11.4514 19.9914 5.54545 30.5 5.54545ZM30.5 0C16.6364 0 4.79682 8.62318 0 20.7955C4.79682 32.9677 16.6364 41.5909 30.5 41.5909C44.3636 41.5909 56.2032 32.9677 61 20.7955C56.2032 8.62318 44.3636 0 30.5 0ZM30.5 13.8636C34.3264 13.8636 37.4318 16.9691 37.4318 20.7955C37.4318 24.6218 34.3264 27.7273 30.5 27.7273C26.6736 27.7273 23.5682 24.6218 23.5682 20.7955C23.5682 16.9691 26.6736 13.8636 30.5 13.8636ZM30.5 8.31818C23.6236 8.31818 18.0227 13.9191 18.0227 20.7955C18.0227 27.6718 23.6236 33.2727 30.5 33.2727C37.3764 33.2727 42.9773 27.6718 42.9773 20.7955C42.9773 13.9191 37.3764 8.31818 30.5 8.31818Z" fill="rgb(110, 124, 101)"/>
</svg>
