<svg width="40" height="37" viewBox="0 0 40 36" fill="none" xmlns="http://www.w3.org/2000/svg">
<path d="M29 0C25.52 0 22.18 1.5891 20 4.10027C17.82 1.5891 14.48 0 11 0C4.84 0 0 4.74768 0 10.7902C0 18.206 6.8 24.2485 17.1 33.43L20 36L22.9 33.4104C33.2 24.2485 40 18.206 40 10.7902C40 4.74768 35.16 0 29 0ZM20.2 30.5068L20 30.703L19.8 30.5068C10.28 22.0512 4 16.4599 4 10.7902C4 6.86648 7 3.92371 11 3.92371C14.08 3.92371 17.08 5.86594 18.14 8.55368H21.88C22.92 5.86594 25.92 3.92371 29 3.92371C33 3.92371 36 6.86648 36 10.7902C36 16.4599 29.72 22.0512 20.2 30.5068Z" fill="#6E7C65"/>
</svg>
