<svg width="60" height="68" viewBox="0 0 60 68" fill="none" xmlns="http://www.w3.org/2000/svg">
<path d="M50 47.7331C47.4667 47.7331 45.2 48.7331 43.4667 50.2998L19.7 36.4665C19.8667 35.6998 20 34.9331 20 34.1331C20 33.3331 19.8667 32.5665 19.7 31.7998L43.2 18.0998C45 19.7665 47.3667 20.7998 50 20.7998C55.5333 20.7998 60 16.3331 60 10.7998C60 5.26647 55.5333 0.799805 50 0.799805C44.4667 0.799805 40 5.26647 40 10.7998C40 11.5998 40.1333 12.3665 40.3 13.1331L16.8 26.8331C15 25.1665 12.6333 24.1331 10 24.1331C4.46667 24.1331 0 28.5998 0 34.1331C0 39.6665 4.46667 44.1331 10 44.1331C12.6333 44.1331 15 43.0998 16.8 41.4331L40.5333 55.2998C40.3667 55.9998 40.2667 56.7331 40.2667 57.4665C40.2667 62.8331 44.6333 67.1998 50 67.1998C55.3667 67.1998 59.7333 62.8331 59.7333 57.4665C59.7333 52.0998 55.3667 47.7331 50 47.7331ZM50 7.46647C51.8333 7.46647 53.3333 8.96647 53.3333 10.7998C53.3333 12.6331 51.8333 14.1331 50 14.1331C48.1667 14.1331 46.6667 12.6331 46.6667 10.7998C46.6667 8.96647 48.1667 7.46647 50 7.46647ZM10 37.4665C8.16667 37.4665 6.66667 35.9665 6.66667 34.1331C6.66667 32.2998 8.16667 30.7998 10 30.7998C11.8333 30.7998 13.3333 32.2998 13.3333 34.1331C13.3333 35.9665 11.8333 37.4665 10 37.4665ZM50 60.8665C48.1667 60.8665 46.6667 59.3665 46.6667 57.5331C46.6667 55.6998 48.1667 54.1998 50 54.1998C51.8333 54.1998 53.3333 55.6998 53.3333 57.5331C53.3333 59.3665 51.8333 60.8665 50 60.8665Z" fill="white"/>
</svg>
