<svg width="31" height="22" viewBox="0 0 31 22" fill="none" xmlns="http://www.w3.org/2000/svg">
<path d="M15.2593 3.62697C20.5169 3.62697 25.2057 6.58173 27.4946 11.2566C25.2057 15.9316 20.5169 18.8863 15.2593 18.8863C10.0018 18.8863 5.31303 15.9316 3.02413 11.2566C5.31303 6.58173 10.0018 3.62697 15.2593 3.62697ZM15.2593 0.852539C8.32328 0.852539 2.39988 5.16677 0 11.2566C2.39988 17.3465 8.32328 21.6607 15.2593 21.6607C22.1954 21.6607 28.1188 17.3465 30.5187 11.2566C28.1188 5.16677 22.1954 0.852539 15.2593 0.852539ZM15.2593 7.78861C17.1737 7.78861 18.7274 9.34229 18.7274 11.2566C18.7274 13.171 17.1737 14.7247 15.2593 14.7247C13.345 14.7247 11.7913 13.171 11.7913 11.2566C11.7913 9.34229 13.345 7.78861 15.2593 7.78861ZM15.2593 5.01418C11.8191 5.01418 9.01689 7.81635 9.01689 11.2566C9.01689 14.6969 11.8191 17.4991 15.2593 17.4991C18.6996 17.4991 21.5018 14.6969 21.5018 11.2566C21.5018 7.81635 18.6996 5.01418 15.2593 5.01418Z" fill="#9FAC9A"/>
</svg>
